<svg width="820" height="820" viewBox="0 0 820 820" fill="none" xmlns="http://www.w3.org/2000/svg">
<path fill-rule="evenodd" clip-rule="evenodd" d="M20.358 143.438C-6.78601 170.582 -6.78597 214.591 20.358 241.736L133.983 355.361C137.893 359.272 140.09 364.576 140.09 370.106L140.09 449.894C140.09 455.424 137.893 460.729 133.983 464.639L20.358 578.264C-6.78601 605.409 -6.78597 649.418 20.358 676.562L143.437 799.642C170.581 826.786 214.59 826.786 241.734 799.642L356.09 685.285C360.001 681.375 365.304 679.178 370.834 679.178H449.161C454.692 679.178 459.995 681.375 463.905 685.285L578.262 799.642C605.406 826.786 649.415 826.786 676.559 799.642L799.638 676.562C826.782 649.418 826.782 605.409 799.638 578.264L676.559 455.185C649.415 428.04 605.406 428.04 578.262 455.185L464.638 568.808C460.728 572.719 455.424 574.916 449.894 574.916H370.101C364.571 574.916 359.268 572.719 355.357 568.808L250.456 463.906C246.545 459.995 244.348 454.691 244.348 449.161V370.839C244.348 365.309 246.545 360.005 250.456 356.094L356.09 250.459C360.001 246.548 365.304 244.351 370.834 244.351H449.161C454.692 244.351 459.995 246.548 463.905 250.459L578.262 364.815C605.406 391.96 649.415 391.96 676.559 364.815L799.638 241.736C826.782 214.591 826.782 170.582 799.638 143.438L676.559 20.3581C649.415 -6.78605 605.406 -6.78601 578.262 20.3581L464.638 133.982C460.728 137.892 455.424 140.089 449.894 140.089H370.101C364.571 140.089 359.268 137.892 355.357 133.982L241.734 20.3581C214.59 -6.78605 170.581 -6.78601 143.437 20.3581L20.358 143.438ZM133.4 177.842C125.257 185.985 125.257 199.188 133.4 207.332L177.842 251.774C185.985 259.917 199.187 259.917 207.33 251.774L251.771 207.332C259.915 199.188 259.915 185.985 251.771 177.842L207.33 133.4C199.187 125.257 185.985 125.257 177.842 133.4L133.4 177.842ZM133.4 612.668C125.257 620.811 125.257 634.015 133.4 642.158L177.842 686.6C185.985 694.743 199.187 694.743 207.33 686.6L251.771 642.158C259.915 634.015 259.915 620.811 251.771 612.668L207.33 568.226C199.187 560.083 185.985 560.083 177.842 568.226L133.4 612.668ZM642.154 686.6C634.011 694.743 620.809 694.743 612.666 686.6L568.225 642.158C560.081 634.015 560.081 620.812 568.225 612.668L612.666 568.226C620.809 560.083 634.011 560.083 642.154 568.226L686.596 612.668C694.739 620.811 694.739 634.015 686.596 642.158L642.154 686.6ZM568.225 177.842C560.081 185.985 560.081 199.188 568.225 207.332L612.666 251.774C620.809 259.917 634.011 259.917 642.154 251.774L686.596 207.332C694.739 199.188 694.739 185.985 686.596 177.842L642.154 133.4C634.011 125.257 620.809 125.257 612.666 133.4L568.225 177.842Z" fill="#32CEE3"/>
</svg>
